<?xml version="1.0" standalone="no"?>
<!DOCTYPE svg PUBLIC "-//W3C//DTD SVG 20010904//EN"
 "http://www.w3.org/TR/2001/REC-SVG-20010904/DTD/svg10.dtd">
<svg version="1.0" xmlns="http://www.w3.org/2000/svg"
 width="48.000000pt" height="48.000000pt" viewBox="0 0 48.000000 48.000000"
 preserveAspectRatio="xMidYMid meet">

<g transform="translate(0.000000,48.000000) scale(0.100000,-0.100000)"
fill="#000000" stroke="none">
<path d="M100 373 c1 -5 12 -21 25 -37 l24 -30 -26 -30 c-30 -36 -13 -49 22
-16 l23 21 15 -21 c10 -14 23 -20 38 -18 l22 3 -27 33 c-29 33 -29 40 0 80 14
19 14 22 2 22 -8 0 -23 -9 -33 -20 l-18 -20 -14 20 c-13 19 -53 28 -53 13z"/>
<path d="M360 358 c-22 -18 -25 -18 -36 -4 -15 22 -35 20 -27 -1 7 -17 6 -17
-20 0 -35 23 -39 22 -35 -10 3 -26 6 -28 51 -27 56 2 60 -18 6 -26 -25 -4 -30
-7 -16 -12 9 -4 17 -12 17 -18 0 -8 -6 -8 -20 0 -25 13 -26 2 -2 -16 22 -17
52 -17 75 0 23 18 22 29 -3 16 -14 -7 -20 -8 -20 0 0 6 11 15 25 22 26 12 46
54 36 80 -5 15 -8 15 -31 -4z"/>
<path d="M90 186 c0 -19 112 -15 117 4 4 13 3 13 -6 0 -7 -9 -14 -11 -18 -5
-11 13 -36 18 -28 5 3 -5 1 -10 -4 -10 -6 0 -11 3 -11 8 0 4 -11 8 -25 8 -14
1 -25 -3 -25 -10z"/>
<path d="M223 187 c4 -14 47 -19 47 -6 0 5 -3 9 -7 10 -5 0 -16 2 -26 4 -11 2
-16 -2 -14 -8z"/>
<path d="M290 186 c0 -9 5 -16 10 -16 6 0 10 4 10 9 0 6 -4 13 -10 16 -5 3
-10 -1 -10 -9z"/>
<path d="M321 184 c0 -11 3 -14 6 -6 3 7 2 16 -1 19 -3 4 -6 -2 -5 -13z"/>
<path d="M340 185 c0 -11 9 -15 31 -13 36 3 46 13 22 22 -9 4 -20 1 -25 -6 -6
-10 -8 -10 -8 0 0 6 -4 12 -10 12 -5 0 -10 -7 -10 -15z"/>
<path d="M161 134 c0 -11 3 -14 6 -6 3 7 2 16 -1 19 -3 4 -6 -2 -5 -13z"/>
<path d="M192 138 c2 -6 12 -12 22 -14 9 -1 16 2 14 8 -2 6 -12 12 -22 14 -9
1 -16 -2 -14 -8z"/>
<path d="M240 136 c0 -9 5 -16 10 -16 6 0 10 4 10 9 0 6 -4 13 -10 16 -5 3
-10 -1 -10 -9z"/>
<path d="M270 136 c0 -9 5 -16 10 -16 6 0 10 4 10 9 0 6 -4 13 -10 16 -5 3
-10 -1 -10 -9z"/>
<path d="M311 134 c0 -11 3 -14 6 -6 3 7 2 16 -1 19 -3 4 -6 -2 -5 -13z"/>
</g>
</svg>
